<svg xmlns="http://www.w3.org/2000/svg" xmlns:xlink="http://www.w3.org/1999/xlink" viewBox="0 0 612 612">
  <defs>
    <style>
      .cls-1 {
        fill: none;
      }

      .cls-2 {
        fill: #25bfd8;
      }

      .cls-3 {
        fill: #a3a3a3;
      }

      .cls-4 {
        fill: #ddc8c0;
      }

      .cls-5 {
        fill: #d6c1ba;
      }

      .cls-6 {
        clip-path: url(#clip-path);
      }

      .cls-7 {
        opacity: 0.04;
      }

      .cls-8 {
        fill: #fff;
      }

      .cls-9 {
        fill: #efefef;
      }

      .cls-10, .cls-11 {
        fill: #c6c6c6;
      }

      .cls-11 {
        stroke: #848484;
        stroke-miterlimit: 10;
        stroke-width: 0.5px;
      }

      .cls-12 {
        fill: #3f332f;
      }

      .cls-13 {
        fill: #59433d;
      }

      .cls-14 {
        fill: #f7f7f7;
      }

      .cls-15 {
        fill: #edd9ce;
      }

      .cls-16 {
        fill: #ceafb2;
      }

      .cls-17 {
        fill: #d39fa9;
      }

      .cls-18 {
        fill: #90282b;
      }

      .cls-19 {
        fill: #e5d1c7;
      }

      .cls-20 {
        fill: #a0835d;
      }

      .cls-21 {
        fill: #0a0a0c;
      }

      .cls-22 {
        fill: #e4e8ea;
      }

      .cls-23 {
        clip-path: url(#clip-path-2);
      }

      .cls-24 {
        clip-path: url(#clip-path-3);
      }
    </style>
    <clipPath id="clip-path" transform="translate(0 -170.426)">
      <path id="Masque_cou" data-name="Masque cou" class="cls-1" d="M303.787,550.75c17.384,0,40.155-19.51,64.884-38.172S398.787,394.95,398.787,394.95c-.326-44.77-3.265-75.5-10.447-103.4s-36.89-60.887-84.553-60.887-77.371,32.989-84.553,60.887-10.12,58.625-10.447,103.4c0,0,5.387,98.966,30.116,117.628S286.4,550.75,303.787,550.75Z"/>
    </clipPath>
    <clipPath id="clip-path-2" transform="translate(0 -170.426)">
      <path id="Verre_gauche" data-name="Verre gauche" class="cls-1" d="M226.75,393.875c.538,5.548,2.212,17,4.485,22.188s10.2,5.687,15.727,6a111.6,111.6,0,0,0,20.518-.563c7.679-1,13.147-2.125,15.174-4.062a33.3,33.3,0,0,0,6.45-8.5c1.782-3.5,4.607-10.875,4.362-15.063s-1.229-6.625-3.563-7.937-9.338-4.375-25.8-4.375-24.2,1.062-30.962,3.25S226.4,390.233,226.75,393.875Z"/>
    </clipPath>
    <clipPath id="clip-path-3" transform="translate(0 -170.426)">
      <path id="Verre_droite" data-name="Verre droite" class="cls-1" d="M380.551,393.875c-.538,5.548-2.212,17-4.485,22.188s-10.2,5.688-15.727,6a111.6,111.6,0,0,1-20.518-.562c-7.679-1-13.147-2.125-15.174-4.062a33.3,33.3,0,0,1-6.45-8.5c-1.782-3.5-4.607-10.875-4.362-15.062s1.229-6.625,3.563-7.937,9.338-4.375,25.8-4.375,24.2,1.063,30.962,3.25S380.9,390.233,380.551,393.875Z"/>
    </clipPath>
  </defs>
  <title>jonathan-flat</title>
  <g id="Cadre">
    <circle id="Cercle" class="cls-2" cx="306" cy="306" r="306"/>
  </g>
  <g id="Intérieur_col" data-name="Intérieur col">
    <path id="Intérieur_col-2" data-name="Intérieur col" class="cls-3" d="M304.213,666h59.12C387,666,387,574.667,387,574.667s-1.1-23.334-8.052-30.667S304,537,304,537s-68-.333-74.948,7S221,574.667,221,574.667,221,666,244.667,666h59.547Z" transform="translate(0 -170.426)"/>
  </g>
  <g id="Cou">
    <path id="Cou-2" data-name="Cou" class="cls-4" d="M303.787,482h77.157s-4.37,42.5-1.37,104.5-75.787,91.167-75.787,91.167S225,648.5,228,586.5,226.63,482,226.63,482Z" transform="translate(0 -170.426)"/>
    <path id="Ombre_côté_cou" data-name="Ombre côté cou" class="cls-5" d="M303.787,482h77.157s-4.37,42.5-1.37,104.5-75.787,91.167-75.787,91.167" transform="translate(0 -170.426)"/>
    <g class="cls-6">
      <path id="Masque_cou_2" data-name="Masque cou 2" class="cls-7" d="M303.787,478.243h77.157s-4.37,44.822-1.37,110.21S303.787,684.6,303.787,684.6,225,653.841,228,588.453s-1.37-110.21-1.37-110.21Z" transform="translate(0 -170.426)"/>
    </g>
  </g>
  <g id="T-shirt">
    <path id="T-shirt-2" data-name="T-shirt" class="cls-8" d="M304,740h85.383L371.432,623.387S334,639.333,304,639.333s-67.432-15.946-67.432-15.946L218.617,740Z" transform="translate(0 -170.426)"/>
  </g>
  <g id="Chemise">
    <path class="cls-9" d="M248,612.167A77.8,77.8,0,0,1,264.333,617c8.417,3.583,12.917,8.25,14.583,11.583S283,638.5,287.25,642s13.037,7.25,16.643,16.25S320,696,316.5,707,226,732,226,732l-82.25-95.5L176.5,602s7.942-1.25,20.442-6,11.023-7.8,17.558-14S239,605.75,239,605.75Z" transform="translate(0 -170.426)"/>
    <path id="Ombre" class="cls-10" d="M303.809,658.046a31.763,31.763,0,0,0-2.517,4.662S288.5,689.667,289.667,701s2.167,11.167,9.333,13.833S316.5,670,316.5,670Z" transform="translate(0 -170.426)"/>
    <path class="cls-9" d="M359.617,612.167A77.8,77.8,0,0,0,343.284,617c-8.417,3.583-12.917,8.25-14.583,11.583S324.617,638.5,320.367,642s-13.037,7.25-16.643,16.25S287.617,696,291.117,707s90.5,25,90.5,25l82.25-95.5L431.117,602A170.94,170.94,0,0,1,411,595.5c-12.5-4.75-11.349-7.3-17.883-13.5s-24.5,23.75-24.5,23.75Z" transform="translate(0 -170.426)"/>
    <circle class="cls-11" cx="308" cy="506.574" r="6.167"/>
  </g>
  <g id="Chandail">
    <path class="cls-12" d="M553.713,640.417c-7.25-8-13.083-13.583-24-18.042-31.375-12.75-73.5-18.625-98.75-24.75s-28.437-10.875-28.437-10.875-1.937-.062-5.866,2.583C373.773,654,306,704.667,306,704.667S238.227,654,215.34,589.333c-3.929-2.646-5.866-2.583-5.866-2.583s-3.187,4.75-28.437,10.875-67.375,12-98.75,24.75c-10.917,4.458-16.75,10.042-24,18.042-1.668,1.841-3.71,4.276-5.948,7.209,55,81.333,148.086,134.8,253.662,134.8s198.661-53.467,253.662-134.8C557.424,644.692,555.382,642.258,553.713,640.417Z" transform="translate(0 -170.426)"/>
    <path id="Collet" class="cls-13" d="M303.784,728.667C433.571,624,400.31,586.75,400.31,586.75s-1.937-.062-5.866,2.583c-22.887,64.667-90.66,115.333-90.66,115.333h0S236.014,654,213.127,589.333c-3.929-2.646-5.866-2.583-5.866-2.583S174,624,303.787,728.667Z" transform="translate(0 -170.426)"/>
  </g>
  <g id="Col_de_chemise" data-name="Col de chemise">
    <path id="Col_gauche" data-name="Col gauche" class="cls-14" d="M229.052,542.391l-.007,4.235s-4.122,19.041,0,29.041S232.833,587.333,236,591.5s8.833,12.167,12,20.667c0,0-8.833-2.167-9.667-2.167s-2.833-.167-4,1.167-15.333,2-45,61.667c-1.167,1.667-3.5,1.5-3.833-5.5s.833-32.167,8.5-53.833,22.833-42.167,25.833-55.167S229.052,542.391,229.052,542.391Z" transform="translate(0 -170.426)"/>
    <path id="Col_droit" data-name="Col droit" class="cls-14" d="M378.523,542.391l.007,4.235s4.122,19.041,0,29.041-3.789,11.667-6.956,15.833-8.833,12.167-12,20.667c0,0,8.833-2.167,9.667-2.167s2.833-.167,4,1.167,15.333,2,45,61.667c1.167,1.667,3.5,1.5,3.833-5.5s-.833-32.167-8.5-53.833-22.833-42.167-25.833-55.167S378.523,542.391,378.523,542.391Z" transform="translate(0 -170.426)"/>
  </g>
  <g id="Oreille_gauche" data-name="Oreille gauche">
    <path id="Oreille" class="cls-15" d="M213.5,408.5s-1.333-9.167-9.5-8.333-7,11.167-7,11.167.5,14,1,16.333,1.5,5.167,1.167,7.167-1,13.333,1.667,15.333,1.5,3.833,1.167,6.167.833,7,4.5,7.667,8.181,2.09,11.34-.955S213.5,408.5,213.5,408.5Z" transform="translate(0 -170.426)"/>
    <path id="Ombre-2" data-name="Ombre" class="cls-16" d="M214.167,423.25s-.926.012-4.333,2.458a37.776,37.776,0,0,0-4.333,4.083c-3.5,3.75-3.5,12.375-3.5,12.375s1.083,3.083,1.917,2.75,4.083-1.25,5.25-3.417-.25-4.75.25-6.917.576-3.842,1.75-4.5.667-2.083,1.167-3.25a6.934,6.934,0,0,0,.5-2.417Z" transform="translate(0 -170.426)"/>
    <path id="Creux_haut" data-name="Creux haut" class="cls-17" d="M205.5,413.833s-5.5-9.667-6-5.333,1.333,7.5.833,15,.333,7.333.333,7.333S201.833,423.5,204.5,422c-1.708.563-3.458,3.1-3.458,3.1a14.426,14.426,0,0,0,1.415-6.1C202.25,416.229,200.875,410.708,205.5,413.833Z" transform="translate(0 -170.426)"/>
    <path id="Creux_bas" data-name="Creux bas" class="cls-17" d="M202,442.167s0,.157,0,.417c.022,1.38.264,5.661,2.416,4.833,1.083-.417,1-1.833,2.417-2.167a1.75,1.75,0,0,1,2.167.917,1.576,1.576,0,0,0,2.667-.833,10.764,10.764,0,0,0-.583-6.5c-.833-1.667-1.917-5.417.083-7.333s2.167-8.25,2.167-8.25-3.25,1.75-4.333,4.167-.667,8.75,0,10.75S206.333,446.667,202,442.167Z" transform="translate(0 -170.426)"/>
  </g>
  <g id="Oreille_droite" data-name="Oreille droite">
    <g>
      <path class="cls-18" d="M394.28,408.5s1.333-9.167,9.5-8.333,7,11.167,7,11.167-.5,14-1,16.333-1.5,5.167-1.167,7.167,1,13.333-1.667,15.333-1.5,3.833-1.167,6.167-.833,7-4.5,7.667-8.181,2.09-11.34-.955S394.28,408.5,394.28,408.5Z" transform="translate(0 -170.426)"/>
      <path class="cls-18" d="M393.613,423.25s.926.012,4.333,2.458a37.776,37.776,0,0,1,4.333,4.083c3.5,3.75,3.5,12.375,3.5,12.375s-1.083,3.083-1.917,2.75-4.083-1.25-5.25-3.417.25-4.75-.25-6.917-.576-3.842-1.75-4.5-.667-2.083-1.167-3.25a6.934,6.934,0,0,1-.5-2.417Z" transform="translate(0 -170.426)"/>
      <path class="cls-18" d="M402.28,413.833s5.5-9.667,6-5.333-1.333,7.5-.833,15-.333,7.333-.333,7.333S405.946,423.5,403.28,422c1.708.563,3.458,3.1,3.458,3.1a14.426,14.426,0,0,1-1.415-6.1C405.53,416.229,406.9,410.708,402.28,413.833Z" transform="translate(0 -170.426)"/>
      <path class="cls-18" d="M405.78,442.167s0,.157,0,.417c-.022,1.38-.264,5.661-2.416,4.833-1.083-.417-1-1.833-2.417-2.167a1.75,1.75,0,0,0-2.167.917,1.576,1.576,0,0,1-2.667-.833,10.764,10.764,0,0,1,.583-6.5c.833-1.667,1.917-5.417-.083-7.333s-2.167-8.25-2.167-8.25,3.25,1.75,4.333,4.167.667,8.75,0,10.75S401.446,446.667,405.78,442.167Z" transform="translate(0 -170.426)"/>
    </g>
    <g>
      <path class="cls-19" d="M394.28,408.5s1.333-9.167,9.5-8.333,7,11.167,7,11.167-.5,14-1,16.333-1.5,5.167-1.167,7.167,1,13.333-1.667,15.333-1.5,3.833-1.167,6.167-.833,7-4.5,7.667-8.181,2.09-11.34-.955S394.28,408.5,394.28,408.5Z" transform="translate(0 -170.426)"/>
      <path class="cls-16" d="M393.613,423.25s.926.012,4.333,2.458a37.776,37.776,0,0,1,4.333,4.083c3.5,3.75,3.5,12.375,3.5,12.375s-1.083,3.083-1.917,2.75-4.083-1.25-5.25-3.417.25-4.75-.25-6.917-.576-3.842-1.75-4.5-.667-2.083-1.167-3.25a6.934,6.934,0,0,1-.5-2.417Z" transform="translate(0 -170.426)"/>
      <path class="cls-17" d="M402.28,413.833s5.5-9.667,6-5.333-1.333,7.5-.833,15-.333,7.333-.333,7.333S405.946,423.5,403.28,422c1.708.563,3.458,3.1,3.458,3.1a14.426,14.426,0,0,1-1.415-6.1C405.53,416.229,406.9,410.708,402.28,413.833Z" transform="translate(0 -170.426)"/>
      <path class="cls-17" d="M405.78,442.167s0,.157,0,.417c-.022,1.38-.264,5.661-2.416,4.833-1.083-.417-1-1.833-2.417-2.167a1.75,1.75,0,0,0-2.167.917,1.576,1.576,0,0,1-2.667-.833,10.764,10.764,0,0,1,.583-6.5c.833-1.667,1.917-5.417-.083-7.333s-2.167-8.25-2.167-8.25,3.25,1.75,4.333,4.167.667,8.75,0,10.75S401.446,446.667,405.78,442.167Z" transform="translate(0 -170.426)"/>
    </g>
  </g>
  <g id="Tête">
    <path id="Tête-2" data-name="Tête" class="cls-15" d="M304,540.5c17.384,0,40.155-17.25,64.884-33.75S399,402.75,399,402.75c-.326-39.583-3.265-66.75-10.447-91.417S351.663,257.5,304,257.5s-77.371,29.167-84.553,53.833S209.326,363.167,209,402.75c0,0,5.387,87.5,30.116,104S286.616,540.5,304,540.5Z" transform="translate(0 -170.426)"/>
    <path id="Ombre_côté" data-name="Ombre côté" class="cls-19" d="M304,540.5c17.384,0,40.155-17.25,64.884-33.75S399,402.75,399,402.75c-.326-39.583-3.265-66.75-10.447-91.417S351.663,257.5,304,257.5" transform="translate(0 -170.426)"/>
  </g>
  <g id="Sourcils">
    <path id="Sourcil_gauche" data-name="Sourcil gauche" class="cls-20" d="M230.875,380.053s7.25-4.5,14-4.75,12.5,1.125,17.75,1.25,9.375-.875,10.875-.75,6.625,1.063,9.088.345c1.92-.559,2.912-8.345-4.963-9.22s-17,.375-19.375-.25-7.875-.844-9.375-.219-6.375,2.969-9.5,3.469S232.375,373.428,230.875,380.053Z" transform="translate(0 -170.426)"/>
    <path id="Sourcil_droit" data-name="Sourcil droit" class="cls-20" d="M376.529,380.8s-13.926-4.392-26.683-4.857-21.6,1.664-25.051.991-2.62-7.5,3.437-9.366,9.408-1.453,17.287-1.154,9.077-1.983,12.977-.645,3.918,2.594,8.43,4.109S375.207,375.728,376.529,380.8Z" transform="translate(0 -170.426)"/>
  </g>
  <g id="Cheveux">
    <path id="Cheveux-2" data-name="Cheveux" class="cls-20" d="M212.5,424.75s-1-20.75,1.25-22.75c-.736-7.75-1-31.5,2.75-35.75,3,0,13-10.25,13-17.75s-2.5-16.25-2.5-16.25a54.518,54.518,0,0,0,17-9c8.75-6.75,21.5-19,38.5-18.5s38.749,8,58.249,7,30.75-5.5,30.75-5.5-5,3.5-4,8S377,324,378,331.5s.5,19.75,4.75,24.75,10.25,10.75,12,22,0,23.75,0,23.75,1.889-.583.778,22.75h1.321s3.4-23.083,2.151-29.25c1.25-.667,9.167-9.833,8-18.417a60.08,60.08,0,0,1,1-22.417c1.5-5.667,3-25.667-1.667-36.5S390.5,301,390.5,301s4.833-3.5,4.167-12.167-8.667-17.5-16.333-22.667-20.833-9.667-28-10.333c-3-2.5-22-14.5-57.166-12s-51,16-66.166,28.167-25.628,37.167-27.628,55.5c-1,8.833.961,12.167.961,12.167s-1.667,16.5-1.833,28,3,30.5,9.5,30.333a194.59,194.59,0,0,0,3.179,26.75Z" transform="translate(0 -170.426)"/>
  </g>
  <g id="Lunettes">
    <path id="Monture" class="cls-21" d="M303.787,393.313c4.177,0,7.188,3.813,10.566,12.188,4.862,12.04,8.6,14.75,14.314,16.063,14.068,3.125,21.993,2.75,30.225,2.75s11.242-1.25,14.928-2.5,5.345-3.5,6.7-8.187,3.194-16.062,4.607-18.312,3.317-1.312,4.239-.687c9.522,6.438,9.768,9.625,9.768,9.625s2.7-7,.737-10.125a22.862,22.862,0,0,0-10.5-9.062c0-.75-.307-1.312-2.089-1.812a185.209,185.209,0,0,0-39.685-4.687c-19.474,0-26.293,2.438-31.945,3.375s-7.188,1.563-11.856,1.563-6.2-.625-11.856-1.562-12.471-3.375-31.945-3.375A185.21,185.21,0,0,0,220.3,383.25c-1.782.5-2.089,1.063-2.089,1.813a22.862,22.862,0,0,0-10.5,9.062c-1.966,3.125.737,10.125.737,10.125s.246-3.187,9.768-9.625c.921-.625,2.826-1.562,4.239.688s3.256,13.625,4.607,18.312,3.01,6.938,6.7,8.188,6.7,2.5,14.928,2.5,16.157.375,30.225-2.75c5.713-1.313,9.452-4.023,14.314-16.063,3.379-8.375,6.389-12.187,10.566-12.187Z" transform="translate(0 -170.426)"/>
    <path id="Verre_gauche-2" data-name="Verre gauche" class="cls-22" d="M226.75,393.875c.538,5.548,2.212,17,4.485,22.188s10.2,5.687,15.727,6a111.6,111.6,0,0,0,20.518-.563c7.679-1,13.147-2.125,15.174-4.062a33.3,33.3,0,0,0,6.45-8.5c1.782-3.5,4.607-10.875,4.362-15.063s-1.229-6.625-3.563-7.937-9.338-4.375-25.8-4.375-24.2,1.062-30.962,3.25S226.4,390.233,226.75,393.875Z" transform="translate(0 -170.426)"/>
    <path id="Verre_droite-2" data-name="Verre droite" class="cls-22" d="M380.551,393.875c-.538,5.548-2.212,17-4.485,22.188s-10.2,5.688-15.727,6a111.6,111.6,0,0,1-20.518-.562c-7.679-1-13.147-2.125-15.174-4.062a33.3,33.3,0,0,1-6.45-8.5c-1.782-3.5-4.607-10.875-4.362-15.062s1.229-6.625,3.563-7.937,9.338-4.375,25.8-4.375,24.2,1.063,30.962,3.25S380.9,390.233,380.551,393.875Z" transform="translate(0 -170.426)"/>
    <g id="Reflet_gauche" data-name="Reflet gauche">
      <g class="cls-23">
        <rect id="Reflet_gauche-2" data-name="Reflet gauche" class="cls-8" x="249.722" y="342.333" width="20.667" height="113.333" transform="translate(-92.812 -91.291) rotate(-14.713)"/>
      </g>
    </g>
    <g id="Reflet_droite" data-name="Reflet droite">
      <g class="cls-24">
        <rect id="Reflet_droite-2" data-name="Reflet droite" class="cls-8" x="337.547" y="343.446" width="20.667" height="113.333" transform="translate(-90.215 -68.949) rotate(-14.713)"/>
      </g>
    </g>
  </g>
</svg>
